# xmcd
#
# Track frame offsets: 
#        150
#        29102
#        40947
#        61822
#        77830
#        93770
#        120180
#        147627
#        170172
#        188885
#        207660
#
# Disc length: 3080 seconds
#
# Revision: 0
# Processed by: cddbd v1.5.2PL0 Copyright (c) Steve Scherf et al.
# Submitted via: ExactAudioCopyFreeDBPlugin 1.0
#
DISCID=9e0c060b
DTITLE=Kris Lager Band - Transient
DYEAR=1900
DGENRE=
TTITLE0=44
TTITLE1=Honeyslide
TTITLE2=Jenica
TTITLE3=Good Times
TTITLE4=Sandals
TTITLE5=Everything Is Everything
TTITLE6=I Got The Devil
TTITLE7=My Own Worst Enemy
TTITLE8=Muchalada
TTITLE9=Meanwhile
TTITLE10=Rejoice
EXTD=
EXTT0=
EXTT1=
EXTT2=
EXTT3=
EXTT4=
EXTT5=
EXTT6=
EXTT7=
EXTT8=
EXTT9=
EXTT10=
PLAYORDER=
